<svg width="16" height="16" viewBox="0 0 16 16" fill="none" xmlns="http://www.w3.org/2000/svg">
<path d="M7.55163 0.434859C7.73504 0.0632366 8.26496 0.0632372 8.44837 0.43486L10.5287 4.65007C10.6015 4.79764 10.7423 4.89993 10.9052 4.92359L15.5569 5.59953C15.967 5.65912 16.1308 6.16311 15.834 6.45238L12.468 9.73346C12.3501 9.84833 12.2964 10.0138 12.3242 10.176L13.1188 14.809C13.1889 15.2174 12.7601 15.5289 12.3933 15.3361L8.23267 13.1487C8.08701 13.0721 7.91299 13.0721 7.76733 13.1487L3.60667 15.3361C3.23985 15.5289 2.81114 15.2174 2.88119 14.809L3.67581 10.176C3.70363 10.0138 3.64985 9.84833 3.53201 9.73346L0.165966 6.45238C-0.130793 6.16311 0.0329629 5.65912 0.443073 5.59953L5.09483 4.92359C5.25769 4.89993 5.39847 4.79764 5.4713 4.65007L7.55163 0.434859Z" fill="#FFC452"/>
</svg>
